<?xml version="1.0" encoding="iso-8859-1"?>
<!-- Generator: Adobe Illustrator 16.0.0, SVG Export Plug-In . SVG Version: 6.00 Build 0)  -->
<!DOCTYPE svg PUBLIC "-//W3C//DTD SVG 1.1//EN" "http://www.w3.org/Graphics/SVG/1.1/DTD/svg11.dtd">
<svg version="1.1" id="Capa_1" xmlns="http://www.w3.org/2000/svg" xmlns:xlink="http://www.w3.org/1999/xlink" x="0px" y="0px"
	 width="477.909px" height="477.909px" viewBox="0 0 477.909 477.909" style="enable-background:new 0 0 477.909 477.909;"
	 xml:space="preserve">
<g>
	<g>
		<path d="M238.954,477.909C107.195,477.909,0,370.716,0,238.955C0,107.196,107.195,0,238.954,0
			c131.761,0,238.955,107.196,238.955,238.955C477.909,370.716,370.715,477.909,238.954,477.909z M238.954,28.675
			c-115.951,0-210.28,94.329-210.28,210.28c0,115.949,94.329,210.28,210.28,210.28c115.949,0,210.28-94.331,210.28-210.28
			C449.234,123.004,354.903,28.675,238.954,28.675z"/>
	</g>
	<g>
		<g>
			<path d="M348.514,103.698c0-4.422-3.691-8.116-8.116-8.116c-67.626,0-135.256,0-202.885,0c-4.419,0-8.113,3.694-8.113,8.116
				c0,90.17,0,180.341,0,270.514c0,4.429,3.689,8.116,8.113,8.116c67.628,0,135.255,0,202.885,0c2.39,0,4.21-0.868,5.503-2.175
				c0.079-0.065,0.154-0.141,0.224-0.215c0.07-0.075,0.154-0.149,0.22-0.225c1.302-1.297,2.17-3.112,2.17-5.502
				C348.514,284.048,348.514,193.869,348.514,103.698z M332.277,366.096c-62.217,0-124.434,0-186.648,0
				c0-84.759,0-169.518,0-254.284c62.219,0,124.437,0,186.648,0C332.277,196.573,332.277,281.332,332.277,366.096z"/>
		</g>
		<g>
			<rect x="167.751" y="142.895" width="61.171" height="11.469"/>
		</g>
		<rect x="249.945" y="141.462" width="61.652" height="57.349"/>
		<g>
			<rect x="167.751" y="165.836" width="61.171" height="11.469"/>
		</g>
		<g>
			<rect x="167.751" y="188.774" width="61.171" height="11.47"/>
		</g>
		<g>
			<rect x="167.751" y="211.713" width="143.852" height="11.472"/>
		</g>
		<g>
			<rect x="167.751" y="240.388" width="143.852" height="11.472"/>
		</g>
		<path d="M279.24,303.52h-6.249c-0.812-3.137-2.077-6.151-3.691-8.886l4.434-4.443c1.344-1.345,1.344-3.528,0-4.873l-7.29-7.304
			c-1.344-1.339-3.519-1.339-4.872,0l-4.457,4.438c-2.73-1.624-5.746-2.884-8.882-3.691v-6.259c0-1.895-1.498-3.439-3.407-3.439
			h-10.316c-1.902,0-3.402,1.54-3.402,3.439v6.259c-3.129,0.812-6.146,2.067-8.884,3.682l-4.445-4.429
			c-1.342-1.339-3.526-1.339-4.87,0l-7.302,7.295c-1.342,1.344-1.342,3.519,0,4.868l4.436,4.457
			c-1.622,2.734-2.877,5.749-3.689,8.886h-6.252c-1.901,0-3.442,1.498-3.442,3.407v10.318c0,1.899,1.541,3.397,3.442,3.397h6.252
			c0.816,3.137,2.072,6.151,3.689,8.892l-4.436,4.438c-1.342,1.345-1.342,3.528,0,4.878l7.297,7.299
			c1.344,1.345,3.524,1.345,4.866,0l4.455-4.434c2.737,1.614,5.755,2.875,8.884,3.687v6.259c0,1.899,1.496,3.439,3.402,3.439h10.316
			c1.904,0,3.407-1.54,3.407-3.439v-6.259c3.136-0.812,6.151-2.076,8.886-3.687l4.443,4.434c1.344,1.345,3.523,1.345,4.872,0
			l7.3-7.299c1.344-1.34,1.344-3.515,0-4.863l-4.434-4.457c1.624-2.735,2.884-5.75,3.691-8.887h6.249
			c1.904,0,3.444-1.493,3.444-3.397v-10.318C282.685,305.013,281.145,303.52,279.24,303.52z M239.673,329.282
			c-9.507,0-17.208-7.711-17.208-17.213s7.701-17.203,17.208-17.203c9.493,0,17.203,7.701,17.203,17.203
			S249.175,329.282,239.673,329.282z"/>
	</g>
</g>
<g>
</g>
<g>
</g>
<g>
</g>
<g>
</g>
<g>
</g>
<g>
</g>
<g>
</g>
<g>
</g>
<g>
</g>
<g>
</g>
<g>
</g>
<g>
</g>
<g>
</g>
<g>
</g>
<g>
</g>
</svg>
