<?xml version="1.0" encoding="iso-8859-1"?>
<!-- Generator: Adobe Illustrator 16.0.0, SVG Export Plug-In . SVG Version: 6.00 Build 0)  -->
<!DOCTYPE svg PUBLIC "-//W3C//DTD SVG 1.1//EN" "http://www.w3.org/Graphics/SVG/1.1/DTD/svg11.dtd">
<svg version="1.1" id="Capa_1" xmlns="http://www.w3.org/2000/svg" xmlns:xlink="http://www.w3.org/1999/xlink" x="0px" y="0px"
	 width="477.909px" height="477.909px" viewBox="0 0 477.909 477.909" style="enable-background:new 0 0 477.909 477.909;"
	 xml:space="preserve">
<g>
	<g>
		<path d="M249.231,294.871c9.502,0,17.202,7.701,17.202,17.203s-7.7,17.208-17.202,17.208s-17.208-7.706-17.208-17.208
			S239.729,294.871,249.231,294.871z"/>
		<path d="M152.931,367.99c62.128,0,129.035,0,191.164,0c0-86.023,0-172.047,0-258.07c-62.129,0-129.036,0-191.164,0
			C152.931,195.943,152.931,281.967,152.931,367.99z M291.524,317.245c0,1.904-0.821,2.954-2.726,2.954h-6.249
			c-0.812,4.779-2.077,6.376-3.692,9.11l4.435,4.564c1.344,1.344,1.344,3.575,0,4.919l-7.3,7.323
			c-1.344,1.344-3.528,1.357-4.872,0.014l-4.299-4.425c-2.739,1.62-3.972,2.885-8.751,3.696v6.259c0,1.899-1.782,1.993-3.687,1.993
			h-10.314c-1.909,0-5.115-0.094-5.115-1.993v-6.259c0-0.812-5.29-2.076-8.029-3.687l-4.023,4.434c-1.344,1.345-3.307,1.345-4.655,0
			l-7.192-7.299c-1.344-1.345-1.291-3.528,0.051-4.878l4.464-4.662c-1.619-2.734-2.847-4.331-3.666-9.11h-6.249
			c-1.902,0-4.154-1.055-4.154-2.954v-10.318c0-1.914,2.252-1.064,4.154-1.064h6.249c0.819-4.779,2.075-7.322,3.692-10.062
			l-4.436-5.04c-1.342-1.345-1.342-3.813,0-5.157l7.302-7.444c1.344-1.344,3.528-1.414,4.87-0.074l3.589,4.396
			c2.739-1.624,8.029-2.912,8.029-3.725v-6.254c0-1.895,3.207-4.872,5.11-4.872h10.314c1.918,0,3.696,2.973,3.696,4.872v6.259
			c4.779,0.812,6.012,2.076,8.746,3.691l4.383-4.438c1.339-1.339,3.486-1.339,4.835,0l7.276,7.304
			c1.344,1.345,1.334,3.528-0.01,4.873l-4.443,5.609c1.624,2.74,2.88,5.283,3.692,10.062h6.249c1.904,0,2.726-0.85,2.726,1.064
			V317.245z M258.07,143.373h62.128v57.349H258.07V143.373z M176.826,143.373h62.128v9.559h-62.128V143.373z M176.826,167.269
			h62.128v9.559h-62.128V167.269z M176.826,191.164h62.128v9.558h-62.128V191.164z M176.826,210.28h143.372v14.337H176.826V210.28z
			 M176.826,238.955h143.372v14.337H176.826V238.955z"/>
		<path d="M238.954,0C106.985,0,0,106.984,0,238.955c0,131.971,106.985,238.954,238.954,238.954
			c131.967,0,238.955-106.983,238.955-238.954C477.909,106.984,370.921,0,238.954,0z M358.432,374.212
			c0,2.39-1.046,4.205-2.353,5.502c-0.065,0.075-0.238,0.149-0.308,0.225c-0.065,0.074-0.187,0.149-0.262,0.215
			c-1.302,1.307-3.164,2.175-5.554,2.175c-67.626,0-135.257,0-202.885,0c-4.42,0-8.478-3.688-8.478-8.116
			c0-90.164,0-180.343,0-270.514c0-4.422,4.058-8.116,8.478-8.116c67.628,0,135.254,0,202.885,0c4.425,0,8.476,3.694,8.476,8.116
			C358.432,193.869,358.432,284.048,358.432,374.212z"/>
	</g>
</g>
<g>
</g>
<g>
</g>
<g>
</g>
<g>
</g>
<g>
</g>
<g>
</g>
<g>
</g>
<g>
</g>
<g>
</g>
<g>
</g>
<g>
</g>
<g>
</g>
<g>
</g>
<g>
</g>
<g>
</g>
</svg>
